# xmcd
# 
# Track frame offsets:
#     182
#     26272
#     44195
#     74152
#     105150
#     128210
#     152475
#     174857
#     198975
#     225332
# 
# Disc length: 3290
# 
# Revision: 1
# Processed by: cddbd v1.5.2PL0 Copyright (c) Steve Scherf et al.
# Submitted via: fre:ac v1.0.17
# 
DISCID=790cd80a
DTITLE=Bill Evans - Rare Concert Recordings
DYEAR=0
DGENRE=Jazz
TTITLE0=Gloria's Step
TTITLE1=Haunted Heart
TTITLE2=Nardis
TTITLE3=Some Other Time
TTITLE4=Elsa
TTITLE5=I Should Care
TTITLE6=A Sleeping Bee
TTITLE7=Alfie
TTITLE8=Who Can I Turn To
TTITLE9=Very Early
EXTD=
EXTT0=
EXTT1=
EXTT2=
EXTT3=
EXTT4=
EXTT5=
EXTT6=
EXTT7=
EXTT8=
EXTT9=
PLAYORDER=
